<svg xmlns="http://www.w3.org/2000/svg" xmlns:xlink="http://www.w3.org/1999/xlink" contentStyleType="text/css" height="332px" preserveAspectRatio="none" style="width:1335px;height:332px;background:#FFFFFF;" version="1.1" viewBox="0 0 1335 332" width="1335px" zoomAndPan="magnify"><defs/><g><!--class RegistrationModule--><g id="elem_RegistrationModule"><rect codeLine="1" fill="#F1F1F1" height="96.8906" id="RegistrationModule" rx="2.5" ry="2.5" style="stroke:#181818;stroke-width:0.5;" width="223.6064" x="7" y="204.5"/><ellipse cx="47.0409" cy="220.5" fill="#ADD1B2" rx="11" ry="11" style="stroke:#181818;stroke-width:1.0;"/><path d="M50.0097,226.1406 Q49.4315,226.4375 48.7909,226.5781 Q48.1503,226.7344 47.4472,226.7344 Q44.9472,226.7344 43.619,225.0938 Q42.3065,223.4375 42.3065,220.3125 Q42.3065,217.1875 43.619,215.5313 Q44.9472,213.875 47.4472,213.875 Q48.1503,213.875 48.7909,214.0313 Q49.4472,214.1875 50.0097,214.4844 L50.0097,217.2031 Q49.3847,216.625 48.7909,216.3594 Q48.1972,216.0781 47.5722,216.0781 Q46.2284,216.0781 45.5409,217.1563 Q44.8534,218.2188 44.8534,220.3125 Q44.8534,222.4063 45.5409,223.4844 Q46.2284,224.5469 47.5722,224.5469 Q48.1972,224.5469 48.7909,224.2813 Q49.3847,224 50.0097,223.4219 L50.0097,226.1406 Z " fill="#000000"/><text fill="#000000" font-family="sans-serif" font-size="14" lengthAdjust="spacing" textLength="135.96" x="66.6056" y="225.3467">RegistrationModule</text><line style="stroke:#181818;stroke-width:0.5;" x1="8" x2="229.6064" y1="236.5" y2="236.5"/><rect fill="none" height="6" style="stroke:#C82930;stroke-width:1.0;" width="6" x="15" y="247.1484"/><text fill="#000000" font-family="sans-serif" font-size="14" lengthAdjust="spacing" textLength="106.2578" x="27" y="253.4951">address: String</text><line style="stroke:#181818;stroke-width:0.5;" x1="8" x2="229.6064" y1="260.7969" y2="260.7969"/><ellipse cx="18" cy="274.4453" fill="#84BE84" rx="3" ry="3" style="stroke:#038048;stroke-width:1.0;"/><text fill="#000000" font-family="sans-serif" font-size="14" lengthAdjust="spacing" textLength="197.6064" x="27" y="277.792">register(sc: Scanner): String</text><ellipse cx="18" cy="290.7422" fill="#84BE84" rx="3" ry="3" style="stroke:#038048;stroke-width:1.0;"/><text fill="#000000" font-family="sans-serif" font-size="14" lengthAdjust="spacing" textLength="141.1689" x="27" y="294.0889">getAddress(): String</text></g><!--class ProductModule--><g id="elem_ProductModule"><rect codeLine="7" fill="#F1F1F1" height="145.7813" id="ProductModule" rx="2.5" ry="2.5" style="stroke:#181818;stroke-width:0.5;" width="577.3184" x="266.5" y="180"/><ellipse cx="498.6006" cy="196" fill="#ADD1B2" rx="11" ry="11" style="stroke:#181818;stroke-width:1.0;"/><path d="M501.5693,201.6406 Q500.9912,201.9375 500.3506,202.0781 Q499.71,202.2344 499.0068,202.2344 Q496.5068,202.2344 495.1787,200.5938 Q493.8662,198.9375 493.8662,195.8125 Q493.8662,192.6875 495.1787,191.0313 Q496.5068,189.375 499.0068,189.375 Q499.71,189.375 500.3506,189.5313 Q501.0068,189.6875 501.5693,189.9844 L501.5693,192.7031 Q500.9443,192.125 500.3506,191.8594 Q499.7568,191.5781 499.1318,191.5781 Q497.7881,191.5781 497.1006,192.6563 Q496.4131,193.7188 496.4131,195.8125 Q496.4131,197.9063 497.1006,198.9844 Q497.7881,200.0469 499.1318,200.0469 Q499.7568,200.0469 500.3506,199.7813 Q500.9443,199.5 501.5693,198.9219 L501.5693,201.6406 Z " fill="#000000"/><text fill="#000000" font-family="sans-serif" font-size="14" lengthAdjust="spacing" textLength="104.6172" x="519.1006" y="200.8467">ProductModule</text><line style="stroke:#181818;stroke-width:0.5;" x1="267.5" x2="842.8184" y1="212" y2="212"/><rect fill="none" height="6" style="stroke:#C82930;stroke-width:1.0;" width="6" x="274.5" y="222.6484"/><text fill="#000000" font-family="sans-serif" font-size="14" lengthAdjust="spacing" textLength="340.2861" x="286.5" y="228.9951">categories: Map&lt;String, Map&lt;Integer, String&gt;&gt;</text><rect fill="none" height="6" style="stroke:#C82930;stroke-width:1.0;" width="6" x="274.5" y="238.9453"/><text fill="#000000" font-family="sans-serif" font-size="14" lengthAdjust="spacing" textLength="258.3096" x="286.5" y="245.292">productPrices: Map&lt;String, Double&gt;</text><line style="stroke:#181818;stroke-width:0.5;" x1="267.5" x2="842.8184" y1="252.5938" y2="252.5938"/><ellipse cx="277.5" cy="266.2422" fill="#84BE84" rx="3" ry="3" style="stroke:#038048;stroke-width:1.0;"/><text fill="#000000" font-family="sans-serif" font-size="14" lengthAdjust="spacing" textLength="376.2773" x="286.5" y="269.5889">getCategories(): Map&lt;String, Map&lt;Integer, String&gt;&gt;</text><ellipse cx="277.5" cy="282.5391" fill="#84BE84" rx="3" ry="3" style="stroke:#038048;stroke-width:1.0;"/><text fill="#000000" font-family="sans-serif" font-size="14" lengthAdjust="spacing" textLength="161.3623" x="286.5" y="285.8857">showCategories(): void</text><ellipse cx="277.5" cy="298.8359" fill="#84BE84" rx="3" ry="3" style="stroke:#038048;stroke-width:1.0;"/><text fill="#000000" font-family="sans-serif" font-size="14" lengthAdjust="spacing" textLength="336.6768" x="286.5" y="302.1826">showProductsInCategory(category: String): void</text><ellipse cx="277.5" cy="315.1328" fill="#84BE84" rx="3" ry="3" style="stroke:#038048;stroke-width:1.0;"/><text fill="#000000" font-family="sans-serif" font-size="14" lengthAdjust="spacing" textLength="551.3184" x="286.5" y="318.4795">getProduct(category: String, productNumber: int): Map.Entry&lt;String, Double&gt;</text></g><!--class BillingModule--><g id="elem_BillingModule"><rect codeLine="16" fill="#F1F1F1" height="113.1875" id="BillingModule" rx="2.5" ry="2.5" style="stroke:#181818;stroke-width:0.5;" width="449.5273" x="879" y="196.5"/><ellipse cx="1052.5986" cy="212.5" fill="#ADD1B2" rx="11" ry="11" style="stroke:#181818;stroke-width:1.0;"/><path d="M1055.5674,218.1406 Q1054.9893,218.4375 1054.3486,218.5781 Q1053.708,218.7344 1053.0049,218.7344 Q1050.5049,218.7344 1049.1768,217.0938 Q1047.8643,215.4375 1047.8643,212.3125 Q1047.8643,209.1875 1049.1768,207.5313 Q1050.5049,205.875 1053.0049,205.875 Q1053.708,205.875 1054.3486,206.0313 Q1055.0049,206.1875 1055.5674,206.4844 L1055.5674,209.2031 Q1054.9424,208.625 1054.3486,208.3594 Q1053.7549,208.0781 1053.1299,208.0781 Q1051.7861,208.0781 1051.0986,209.1563 Q1050.4111,210.2188 1050.4111,212.3125 Q1050.4111,214.4063 1051.0986,215.4844 Q1051.7861,216.5469 1053.1299,216.5469 Q1053.7549,216.5469 1054.3486,216.2813 Q1054.9424,216 1055.5674,215.4219 L1055.5674,218.1406 Z " fill="#000000"/><text fill="#000000" font-family="sans-serif" font-size="14" lengthAdjust="spacing" textLength="93.8301" x="1073.0986" y="217.3467">BillingModule</text><line style="stroke:#181818;stroke-width:0.5;" x1="880" x2="1327.5273" y1="228.5" y2="228.5"/><rect fill="none" height="6" style="stroke:#C82930;stroke-width:1.0;" width="6" x="887" y="239.1484"/><text fill="#000000" font-family="sans-serif" font-size="14" lengthAdjust="spacing" textLength="343.9502" x="899" y="245.4951">cart: Map&lt;String, Map.Entry&lt;Double, Integer&gt;&gt;</text><line style="stroke:#181818;stroke-width:0.5;" x1="880" x2="1327.5273" y1="252.7969" y2="252.7969"/><ellipse cx="890" cy="266.4453" fill="#84BE84" rx="3" ry="3" style="stroke:#038048;stroke-width:1.0;"/><text fill="#000000" font-family="sans-serif" font-size="14" lengthAdjust="spacing" textLength="423.5273" x="899" y="269.792">addToCart(productName: String, productPrice: double): void</text><ellipse cx="890" cy="282.7422" fill="#84BE84" rx="3" ry="3" style="stroke:#038048;stroke-width:1.0;"/><text fill="#000000" font-family="sans-serif" font-size="14" lengthAdjust="spacing" textLength="115.5" x="899" y="286.0889">showCart(): void</text><ellipse cx="890" cy="299.0391" fill="#84BE84" rx="3" ry="3" style="stroke:#038048;stroke-width:1.0;"/><text fill="#000000" font-family="sans-serif" font-size="14" lengthAdjust="spacing" textLength="362.3389" x="899" y="302.3857">processPayment(sc: Scanner, address: String): void</text></g><!--class AtoZOnlineApp--><g id="elem_AtoZOnlineApp"><rect codeLine="23" fill="#F1F1F1" height="113.1875" id="AtoZOnlineApp" rx="2.5" ry="2.5" style="stroke:#181818;stroke-width:0.5;" width="420.0645" x="345" y="7"/><ellipse cx="497.9165" cy="23" fill="#ADD1B2" rx="11" ry="11" style="stroke:#181818;stroke-width:1.0;"/><path d="M500.8853,28.6406 Q500.3071,28.9375 499.6665,29.0781 Q499.0259,29.2344 498.3228,29.2344 Q495.8228,29.2344 494.4946,27.5938 Q493.1821,25.9375 493.1821,22.8125 Q493.1821,19.6875 494.4946,18.0313 Q495.8228,16.375 498.3228,16.375 Q499.0259,16.375 499.6665,16.5313 Q500.3228,16.6875 500.8853,16.9844 L500.8853,19.7031 Q500.2603,19.125 499.6665,18.8594 Q499.0728,18.5781 498.4478,18.5781 Q497.104,18.5781 496.4165,19.6563 Q495.729,20.7188 495.729,22.8125 Q495.729,24.9063 496.4165,25.9844 Q497.104,27.0469 498.4478,27.0469 Q499.0728,27.0469 499.6665,26.7813 Q500.2603,26.5 500.8853,25.9219 L500.8853,28.6406 Z " fill="#000000"/><text fill="#000000" font-family="sans-serif" font-size="14" lengthAdjust="spacing" textLength="105.7314" x="518.4165" y="27.8467">AtoZOnlineApp</text><line style="stroke:#181818;stroke-width:0.5;" x1="346" x2="764.0645" y1="39" y2="39"/><line style="stroke:#181818;stroke-width:0.5;" x1="346" x2="764.0645" y1="47" y2="47"/><ellipse cx="356" cy="60.6484" fill="#84BE84" rx="3" ry="3" style="stroke:#038048;stroke-width:1.0;"/><text fill="#000000" font-family="sans-serif" font-size="14" lengthAdjust="spacing" textLength="177.085" x="365" y="63.9951">main(args: String[]): void</text><ellipse cx="356" cy="76.9453" fill="#84BE84" rx="3" ry="3" style="stroke:#038048;stroke-width:1.0;"/><text fill="#000000" font-family="sans-serif" font-size="14" lengthAdjust="spacing" textLength="394.0645" x="365" y="80.292">selectCategory(sc: Scanner, pm: ProductModule): String</text><ellipse cx="356" cy="93.2422" fill="#84BE84" rx="3" ry="3" style="stroke:#038048;stroke-width:1.0;"/><text fill="#000000" font-family="sans-serif" font-size="14" lengthAdjust="spacing" textLength="373.8916" x="365" y="96.5889">getYesOrNoInput(sc: Scanner, prompt: String): String</text><ellipse cx="356" cy="109.5391" fill="#84BE84" rx="3" ry="3" style="stroke:#038048;stroke-width:1.0;"/><text fill="#000000" font-family="sans-serif" font-size="14" lengthAdjust="spacing" textLength="308.5811" x="365" y="112.8857">getIntInput(sc: Scanner, prompt: String): int</text></g><!--link AtoZOnlineApp to RegistrationModule--><g id="link_AtoZOnlineApp_RegistrationModule"><path codeLine="30" d="M394.37,120.14 C346.97,137.89 295.38,158.54 249,180 C233.08,187.37 221.7193,193.0488 205.8693,201.6088 " fill="none" id="AtoZOnlineApp-to-RegistrationModule" style="stroke:#181818;stroke-width:1.0;"/><polygon fill="#181818" points="200.59,204.46,210.4097,203.7028,204.9894,202.084,206.6082,196.6637,200.59,204.46" style="stroke:#181818;stroke-width:1.0;"/></g><!--link AtoZOnlineApp to ProductModule--><g id="link_AtoZOnlineApp_ProductModule"><path codeLine="31" d="M555,120.25 C555,138.92 555,154.02 555,173.77 " fill="none" id="AtoZOnlineApp-to-ProductModule" style="stroke:#181818;stroke-width:1.0;"/><polygon fill="#181818" points="555,179.77,559,170.77,555,174.77,551,170.77,555,179.77" style="stroke:#181818;stroke-width:1.0;"/></g><!--link AtoZOnlineApp to BillingModule--><g id="link_AtoZOnlineApp_BillingModule"><path codeLine="32" d="M717.86,120.12 C788.36,144.2 865.0219,170.3811 935.5119,194.4511 " fill="none" id="AtoZOnlineApp-to-BillingModule" style="stroke:#181818;stroke-width:1.0;"/><polygon fill="#181818" points="941.19,196.39,933.9654,189.6963,936.4583,194.7743,931.3803,197.2671,941.19,196.39" style="stroke:#181818;stroke-width:1.0;"/></g><!--SRC=[ZPFFJiCm3CRlUueSYzRn01MgD0Q77VP7m0KGXoorIgGsYPmKL27U7IzDIzFki5iL-xE_d-sAYblBdg2KrY5tKgkTBfeAsC-2iHNZHO5WRSQU7KfLqjkIeKy6JAoWTy6L0ho9CafmwqwO_0T-5mlXcnsHEWWNzH7SGQbH0hNQSNFNQLB_lLKK0qn3eJpt2jDLEQ8KKz63RauLvBsLpL3xxEQQwajcF_LthFlIiXX20S5kLKXgaq3GzhnZ2Pa8YbbQseFic_e4c36fNEVozb4vR6TGmnZlPLLHP396T3F4KAWhaB80741fmIzwGxAazy5hc9dpKyvOuKjCX-7LuqSIqKxiaRSrA3S-atHwKBrie5ex_NPG10PhOppLajLSgeHZEQZUFo8FK85mmoAYTgREudkR7Uehs0FkzLQPPcALC6hZHavZ8Stn6X7jyqmNSwrM-OL_xa9IvFr2F3g2Fm00]--></g></svg>